# Blender 4.3.2
# www.blender.org
mtllib pebbles02_low.mtl
o pebble02_low.001
v 0.496448 -0.041123 -0.085958
v 0.519155 0.145383 -0.092590
v 0.694340 0.136952 -0.135744
v 0.655914 -0.060607 -0.299752
v 0.649021 0.164971 -0.282748
v 0.495308 0.143508 -0.244461
v 0.462641 -0.050510 -0.242729
v -0.133134 -0.109148 -0.464422
v 0.081607 -0.143491 -0.427793
v -0.015264 -0.142392 -0.317673
v -0.008030 0.078168 -0.245403
v 0.099221 0.059220 -0.430927
v -0.074478 0.096745 -0.552096
v -0.182002 0.116615 -0.433158
v -0.057674 0.178407 0.447287
v -0.062098 -0.091429 0.445372
v -0.232042 0.003707 0.618142
v 0.004853 0.141513 0.722121
v 0.118240 0.017686 0.537780
v 0.030745 0.019266 0.417314
v -0.148500 0.026744 0.446958
v -0.127763 0.146158 0.534633
v 0.050839 0.140840 0.542784
v -0.028296 -0.018237 0.590456
v 0.644915 0.019724 0.176089
v 0.787146 -0.099172 0.483885
v 0.574876 0.080280 0.576812
v 0.759454 0.298971 0.427837
v 0.935794 0.082651 0.378233
v 0.821217 -0.059127 0.309726
v 0.640279 -0.061631 0.382610
v 0.596166 0.081427 0.308725
v 0.787178 0.124006 0.271011
v 0.800033 0.088119 0.515026
v -0.882897 0.032181 0.024665
v -0.934955 0.020697 -0.055222
v -0.932462 0.060907 -0.055914
v -0.857899 0.066319 -0.102319
v -0.867066 0.006202 -0.090972
v -0.801857 -0.002662 0.001545
v -0.783024 0.038602 0.003347
v 0.626923 0.011271 -0.144435
v 0.518030 -0.069695 -0.205924
v 0.453744 0.065283 -0.152077
v 0.700005 0.094487 -0.245120
v 0.562484 0.105469 -0.056374
v 0.588113 0.181515 -0.185686
v 0.552694 0.057159 -0.296041
v -0.019221 -0.187323 -0.400344
v 0.045884 -0.087839 -0.466860
v -0.029402 0.027043 -0.520403
v -0.175188 0.042071 -0.518479
v -0.124538 -0.036354 -0.333414
v 0.089036 -0.045777 -0.341209
v -0.025663 0.136244 -0.428668
v -0.099433 0.030787 0.411161
v -0.160243 0.082350 0.475951
v -0.150449 0.128542 0.514951
v -0.060947 0.181396 0.550506
v 0.003948 0.176667 0.551751
v 0.061796 0.122417 0.478826
v 0.055961 0.075102 0.432914
v -0.034253 0.028157 0.399514
v -0.115926 -0.072840 0.560522
v -0.088883 0.035095 0.663416
v 0.058106 0.033703 0.627796
v 0.029825 -0.071001 0.525508
v -0.166970 -0.042390 0.490179
v -0.126405 0.102777 0.641864
v 0.086823 0.102706 0.604337
v 0.053964 -0.047167 0.450344
v 0.680086 -0.090989 0.331326
v 0.594283 -0.015579 0.346111
v 0.580452 0.047309 0.320862
v 0.653394 0.125578 0.262553
v 0.721341 0.141573 0.248243
v 0.802377 0.053595 0.234865
v 0.816509 -0.012170 0.254147
v 0.748034 -0.094587 0.301559
v 0.728103 0.008363 0.565762
v 0.709177 0.171132 0.522907
v 0.864919 0.169211 0.455723
v 0.881837 0.007689 0.497289
v 0.659994 -0.054978 0.502879
v 0.635260 0.172745 0.448963
v 0.851993 0.179156 0.353874
v 0.883141 -0.048654 0.403991
v -0.936586 0.039464 -0.020392
v -0.906901 0.014928 -0.042878
v -0.839355 0.001005 -0.015040
v -0.805286 0.017022 0.037576
v -0.866557 0.062189 -0.024944
v -0.910911 0.038501 -0.099587
v -0.812764 0.021532 -0.058133
vn -0.3175 0.1048 -0.9424
vn -0.9701 0.1843 0.1579
vn -0.6573 0.6114 -0.4406
vn -0.2943 -0.9527 -0.0764
vn 0.6334 -0.5605 0.5336
vn -0.2985 -0.6073 0.7362
vn -0.7636 0.0516 -0.6436
vn -0.6929 -0.1671 0.7014
vn -0.7926 0.5980 0.1192
vn 0.0418 -0.0145 -0.9990
vn 0.6078 -0.5768 -0.5458
vn -0.0778 -0.8680 -0.4905
vn -0.4627 0.6920 0.5541
vn -0.0381 0.9991 -0.0210
vn -0.7853 0.3093 -0.5363
vn -0.7365 -0.5415 -0.4055
vn -0.8755 -0.2324 0.4237
vn 0.8460 -0.1222 0.5191
vn 0.1247 0.4475 0.8856
vn 0.1935 0.9806 -0.0305
vn 0.3122 -0.0315 -0.9495
vn 0.0386 0.4731 -0.8802
vn 0.5048 -0.3453 -0.7911
vn 0.8678 0.3828 -0.3168
vn 0.7214 -0.6493 -0.2409
vn -0.4038 0.0012 -0.9148
vn -0.7515 0.6526 -0.0969
vn -0.0521 -0.9979 -0.0374
vn -0.6098 -0.6610 -0.4372
vn -0.7008 -0.0262 -0.7129
vn -0.9735 0.1098 -0.2007
vn -0.8524 -0.5102 -0.1147
vn -0.6836 0.0729 0.7262
vn -0.1873 -0.9084 0.3738
vn -0.1315 -0.4177 0.8990
vn 0.7186 0.5946 -0.3606
vn 0.8799 0.3595 0.3108
vn 0.9652 -0.2544 0.0615
vn -0.2488 0.9551 0.1612
vn -0.5637 0.8131 0.1450
vn 0.5354 -0.4848 0.6916
vn 0.4019 -0.8728 0.2769
vn 0.3580 0.9335 0.0200
vn 0.2197 0.3956 0.8918
vn 0.5222 0.1662 -0.8364
vn 0.6407 0.6241 -0.4472
vn 0.9868 0.1148 -0.1139
vn 0.6062 0.2634 -0.7505
vn 0.4488 -0.0855 -0.8895
vn -0.5803 0.5149 0.6310
vn 0.6848 0.7263 -0.0590
vn -0.3894 -0.9010 -0.1911
vn -0.4578 -0.7591 0.4628
vn -0.6173 -0.7860 0.0344
vn 0.1157 -0.8974 -0.4259
vn 0.7603 -0.6476 -0.0500
vn 0.2454 -0.8526 0.4613
vn 0.1354 -0.2282 0.9641
vn -0.0161 0.5729 0.8194
vn 0.7008 0.5129 0.4958
vn -0.5721 0.6472 -0.5039
vn -0.8195 0.4921 -0.2936
vn -0.6906 0.7171 -0.0941
vn -0.7928 -0.5849 -0.1712
vn -0.8507 0.0505 0.5233
vn 0.7234 -0.1937 0.6627
vn -0.7259 0.6809 0.0976
vn 0.0416 0.6330 -0.7730
vn 0.0709 0.9924 0.1001
vn 0.3102 0.6222 -0.7188
vn 0.0724 0.9796 0.1877
vn 0.5499 -0.3931 -0.7369
vn 0.5462 -0.7094 -0.4454
vn 0.4332 0.5031 -0.7478
vn -0.0666 -0.9934 0.0932
vn 0.8157 -0.1765 -0.5509
vn 0.4727 -0.8778 0.0776
vn 0.3975 -0.1721 0.9013
vn 0.8682 0.4618 0.1814
vn -0.3609 -0.9272 0.1006
vn -0.5048 0.0391 -0.8623
vn 0.0721 -0.7910 -0.6076
vn 0.2980 0.6774 -0.6725
vn 0.5146 -0.6783 -0.5245
vn 0.9285 0.1470 -0.3409
vn 0.7864 0.3546 0.5058
vn 0.0414 0.2324 0.9717
vn 0.4466 0.1955 0.8731
vn -0.7922 -0.3884 -0.4706
vn -0.0333 -0.6655 0.7456
vn 0.1792 -0.7507 0.6358
vn -0.1011 0.7999 -0.5916
vn -0.3963 -0.1450 -0.9066
vn -0.4052 -0.0219 0.9140
vt 0.754933 0.765414
vt 0.642469 0.753192
vt 0.700612 0.684349
vt 0.741637 0.309379
vt 0.845070 0.347497
vt 0.743771 0.420774
vt 0.683099 0.048568
vt 0.516179 0.131702
vt 0.682755 0.147827
vt 0.831751 0.532096
vt 0.826532 0.630282
vt 0.728929 0.581038
vt 0.466611 0.657577
vt 0.414363 0.786312
vt 0.508187 0.746379
vt 0.912553 0.861917
vt 0.812303 0.915430
vt 0.883933 0.996479
vt 0.014286 0.989437
vt 0.151408 0.856552
vt 0.000746 0.856552
vt 0.683099 0.189811
vt 0.533132 0.278169
vt 0.654389 0.294133
vt 0.524051 0.291322
vt 0.614506 0.233402
vt 0.720773 0.394208
vt 0.750000 0.259430
vt 0.863350 0.172667
vt 0.979435 0.219640
vt 0.863350 0.235916
vt 0.793368 0.486132
vt 0.964979 0.879635
vt 0.659646 0.491197
vt 0.563870 0.426546
vt 0.693609 0.476951
vt 0.756741 0.452119
vt 0.707762 0.881484
vt 0.613671 0.992958
vt 0.753521 0.992958
vt 0.440228 0.182340
vt 0.382779 0.160896
vt 0.300866 0.362195
vt 0.203872 0.417851
vt 0.209347 0.319270
vt 0.323063 0.390236
vt 0.971259 0.630166
vt 0.984153 0.746479
vt 0.899131 0.713863
vt 0.783580 0.084248
vt 0.770748 0.000514
vt 0.765610 0.026804
vt 0.531722 0.472188
vt 0.488429 0.526444
vt 0.552817 0.554577
vt 0.843783 0.390845
vt 0.948270 0.226894
vt 0.849504 0.314060
vt 0.072954 0.319270
vt 0.068915 0.417509
vt 0.000185 0.385869
vt 0.814375 0.134363
vt 0.687601 0.219172
vt 0.783063 0.407350
vt 0.256196 0.084730
vt 0.252556 0.246694
vt 0.170070 0.212396
vt 0.911972 0.559419
vt 0.861804 0.578399
vt 0.687601 0.081454
vt 0.901408 0.144540
vt 0.846262 0.166789
vt 0.544688 0.621880
vt 0.665029 0.723592
vt 0.564061 0.679219
vt 0.819405 0.225352
vt 0.919451 0.600872
vt 0.555419 0.555650
vt 0.699389 0.506859
vt 0.713028 0.614867
vt 0.816604 0.644160
vt 0.864689 0.596720
vt 0.355798 0.493822
vt 0.448368 0.418998
vt 0.075740 0.639472
vt 0.177008 0.530823
vt 0.028515 0.494417
vt 0.178932 0.303615
vt 0.235884 0.489794
vt 0.341420 0.426804
vt 0.522007 0.207665
vt 0.468705 0.198929
vt 0.040029 0.087319
vt 0.023402 0.119718
vt 0.058099 0.119322
vt 0.279492 0.640208
vt 0.178006 0.746925
vt 0.276464 0.748399
vt 0.436473 0.350824
vt 0.356801 0.588123
vt 0.300691 0.562990
vt 0.279057 0.739437
vt 0.513732 0.699540
vt 0.240741 0.850483
vt 0.215761 0.925139
vt 0.279433 0.908933
vt 0.093055 0.089789
vt 0.143571 0.000973
vt 0.147887 0.044974
vt 0.522007 0.438380
vt 0.881762 0.836268
vt 0.975352 0.780818
vt 0.947327 0.830330
vt 0.305488 0.895970
vt 0.298657 0.852189
vt 0.341220 0.885725
vt 0.394366 0.734297
vt 0.394366 0.639564
vt 0.201671 0.055731
vt 0.233876 0.950704
vt 0.075982 0.133216
vt 0.135904 0.059260
vt 0.304577 0.494417
vt 0.001680 0.641688
vt 0.359155 0.914094
vt 0.354401 0.879029
vt 0.123226 0.228222
vt 0.090544 0.316901
vt 0.179577 0.316901
vt 0.242127 0.916346
vt 0.206088 0.880873
vt 0.242305 0.859465
vt 0.215361 0.924266
vt 0.035762 0.048782
vt 0.020787 0.084507
vt 0.000987 0.056811
vt 0.914042 0.404308
vt 0.981551 0.512324
vt 0.917429 0.512324
vt 0.844653 0.674982
vt 0.700167 0.878521
vt 0.839265 0.878521
vt 0.044080 0.276830
vt 0.009752 0.320423
vt 0.000647 0.268416
vt 0.130599 0.751033
vt 0.083210 0.852112
vt 0.014016 0.776208
vt 0.433911 0.834507
vt 0.178716 0.642062
vt 0.325537 0.745924
vt 0.284855 0.848592
vt 0.411972 0.848592
vt 0.628521 0.752392
vt 0.601486 0.699569
vt 0.293105 0.068036
vt 0.407860 0.025947
vt 0.278483 0.025947
vt 0.532044 0.947183
vt 0.411241 0.826969
vt 0.523730 0.871241
vt 0.033579 0.477822
vt 0.131153 0.507923
vt 0.253911 0.245369
vt 0.987765 0.996479
vt 0.988961 0.892929
vt 0.137187 0.371651
vt 0.609241 0.839814
vt 0.878521 0.742450
vt 0.050217 0.225914
vt 0.000201 0.132076
vt 0.504621 0.082488
vt 0.507042 0.030603
vt 0.658962 0.856993
vt 0.845070 0.201316
vt 0.546046 0.000882
vt 0.397339 0.709679
vt 0.858285 0.858599
vt 0.149230 0.986784
vt 0.982395 0.095724
vt 0.911972 0.420082
vt 0.996479 0.819286
vt 0.750000 0.443277
vt 0.621453 0.912716
vt 0.508782 0.085486
vt 1.000000 0.679207
vt 0.863838 0.036538
vt 0.961268 0.390845
vt 0.277543 0.149914
vt 1.000000 0.571953
vt 0.597467 0.506859
vt 0.409768 0.554577
vt 0.286092 0.353873
vt 0.233941 0.492112
vt 0.409440 0.580677
vt 0.000604 0.087319
vt 0.347542 0.495474
vt 0.001600 0.000973
vt 0.881762 0.703940
vt 0.286092 0.000731
vt 0.297373 0.950704
vt 0.052396 0.753521
vt 0.001369 0.230950
vt 0.082747 0.084507
vt 0.982394 0.388621
vt 0.774671 0.657164
vt 0.063380 0.320423
vt 0.235915 0.852113
vt 0.570258 0.834507
vt 0.184335 0.758696
vt 0.373684 0.135563
vt 0.426410 0.947183
vt 0.326739 0.162598
vt 0.617958 0.921315
s 1
usemtl pebbles
f 48/1/1 44/2/2 6/3/3
f 43/4/4 42/5/5 1/6/6
f 52/7/7 53/8/8 14/9/9
f 63/10/10 71/11/11 16/12/12
f 6/13/3 2/14/13 47/15/14
f 57/16/15 68/17/16 17/18/17
f 53/19/8 54/20/18 11/21/19
f 55/22/20 53/8/8 11/23/19
f 51/24/21 52/25/7 13/26/22
f 50/27/23 51/24/21 12/28/24
f 50/29/23 54/30/18 9/31/25
f 56/32/26 63/10/10 16/12/12
f 58/33/27 57/16/15 17/18/17
f 50/27/23 49/34/28 8/35/29
f 56/32/26 68/36/16 21/37/30
f 13/38/22 14/39/9 55/40/20
f 74/41/31 73/42/32 27/43/33
f 64/44/34 65/45/35 17/46/17
f 61/47/36 70/48/37 19/49/38
f 59/50/39 58/51/27 22/52/40
f 70/53/37 66/54/41 19/55/38
f 12/56/24 11/57/19 54/58/18
f 66/59/41 67/60/42 19/61/38
f 60/62/43 59/50/39 18/63/44
f 57/64/15 56/32/26 21/37/30
f 77/65/45 86/66/46 29/67/47
f 63/10/10 62/68/48 20/69/49
f 59/50/39 69/70/50 18/63/44
f 61/71/36 60/62/43 23/72/51
f 72/73/52 84/74/53 31/75/54
f 60/62/43 70/76/37 23/72/51
f 62/77/48 61/47/36 19/49/38
f 79/78/55 87/79/56 26/80/57
f 62/77/48 71/81/11 20/82/49
f 65/83/35 66/54/41 18/84/44
f 80/85/58 81/86/59 27/87/33
f 86/66/46 82/88/60 29/67/47
f 68/89/16 64/44/34 17/46/17
f 69/90/50 65/83/35 18/84/44
f 75/91/61 74/41/31 32/92/62
f 72/73/52 79/78/55 26/80/57
f 37/93/63 36/94/64 88/95/65
f 82/96/60 83/97/66 29/98/47
f 74/41/31 85/99/67 32/92/62
f 76/100/68 75/101/61 28/102/69
f 73/103/32 72/73/52 31/75/54
f 38/104/70 37/105/63 92/106/71
f 79/107/55 78/108/72 30/109/73
f 75/91/61 85/99/67 28/110/69
f 77/111/45 76/112/68 33/113/74
f 90/114/75 94/115/76 40/116/77
f 76/100/68 86/117/46 33/118/74
f 78/119/72 77/65/45 29/67/47
f 88/120/65 92/106/71 37/105/63
f 78/119/72 87/121/56 30/122/73
f 81/86/59 82/96/60 28/123/69
f 84/124/53 80/85/58 27/87/33
f 92/106/71 91/125/78 41/126/79
f 85/127/67 81/128/59 28/129/69
f 91/125/78 90/114/75 40/116/77
f 89/130/80 93/131/81 39/132/82
f 94/115/76 92/106/71 41/126/79
f 89/130/80 88/120/65 36/133/64
f 40/134/77 41/135/79 91/136/78
f 51/137/21 55/138/20 12/139/24
f 6/3/3 5/140/83 48/1/1
f 43/141/4 48/1/1 4/142/84
f 39/143/82 38/144/70 94/145/76
f 42/146/5 45/147/85 3/148/86
f 46/149/87 47/15/14 2/14/13
f 80/85/58 83/97/66 34/150/88
f 46/151/87 42/152/5 3/153/86
f 47/15/14 45/154/85 5/155/83
f 43/156/4 44/157/2 7/158/89
f 10/159/90 8/160/29 49/161/28
f 71/162/11 67/60/42 16/163/12
f 73/42/32 84/164/53 27/43/33
f 58/33/27 69/165/50 22/166/40
f 90/114/75 89/130/80 39/132/82
f 64/44/34 67/60/42 24/167/91
f 9/168/25 10/159/90 49/161/28
f 45/169/85 48/1/1 5/140/83
f 87/121/56 83/170/66 26/171/57
f 44/157/2 46/172/87 2/173/13
f 48/1/1 7/174/89 44/2/2
f 43/4/4 4/175/84 42/5/5
f 52/7/7 8/176/29 53/8/8
f 63/10/10 20/69/49 71/11/11
f 6/13/3 44/177/2 2/14/13
f 57/16/15 21/178/30 68/17/16
f 53/19/8 10/179/90 54/20/18
f 55/22/20 14/9/9 53/8/8
f 51/24/21 8/35/29 52/25/7
f 50/27/23 8/35/29 51/24/21
f 50/29/23 12/180/24 54/30/18
f 56/32/26 15/181/92 63/10/10
f 58/33/27 15/182/92 57/16/15
f 50/27/23 9/183/25 49/34/28
f 56/32/26 16/12/12 68/36/16
f 13/38/22 52/184/7 14/39/9
f 74/41/31 25/185/93 73/42/32
f 64/44/34 24/167/91 65/45/35
f 61/47/36 23/186/51 70/48/37
f 59/50/39 15/187/92 58/51/27
f 70/53/37 18/84/44 66/54/41
f 12/56/24 55/188/20 11/57/19
f 66/59/41 24/167/91 67/60/42
f 60/62/43 15/187/92 59/50/39
f 57/64/15 15/181/92 56/32/26
f 77/65/45 33/189/74 86/66/46
f 63/10/10 15/181/92 62/68/48
f 59/50/39 22/52/40 69/70/50
f 61/71/36 15/187/92 60/62/43
f 72/73/52 26/80/57 84/74/53
f 60/62/43 18/63/44 70/76/37
f 62/77/48 15/190/92 61/47/36
f 79/78/55 30/191/73 87/79/56
f 62/77/48 19/49/38 71/81/11
f 65/83/35 24/192/91 66/54/41
f 80/85/58 34/150/88 81/86/59
f 86/66/46 28/193/69 82/88/60
f 68/89/16 16/163/12 64/44/34
f 69/90/50 17/194/17 65/83/35
f 75/91/61 25/185/93 74/41/31
f 72/73/52 25/195/93 79/78/55
f 37/93/63 93/196/81 36/94/64
f 82/96/60 34/150/88 83/97/66
f 74/41/31 27/43/33 85/99/67
f 76/100/68 25/197/93 75/101/61
f 73/103/32 25/195/93 72/73/52
f 38/104/70 93/131/81 37/105/63
f 79/107/55 25/198/93 78/108/72
f 75/91/61 32/92/62 85/99/67
f 77/111/45 25/199/93 76/112/68
f 90/114/75 39/132/82 94/115/76
f 76/100/68 28/102/69 86/117/46
f 78/119/72 25/200/93 77/65/45
f 88/120/65 35/201/94 92/106/71
f 78/119/72 29/67/47 87/121/56
f 81/86/59 34/150/88 82/96/60
f 84/124/53 26/202/57 80/85/58
f 92/106/71 35/201/94 91/125/78
f 85/127/67 27/203/33 81/128/59
f 91/125/78 35/201/94 90/114/75
f 89/130/80 36/133/64 93/131/81
f 94/115/76 38/104/70 92/106/71
f 89/130/80 35/201/94 88/120/65
f 40/134/77 94/204/76 41/135/79
f 51/137/21 13/205/22 55/138/20
f 6/3/3 47/206/14 5/140/83
f 43/141/4 7/174/89 48/1/1
f 39/143/82 93/207/81 38/144/70
f 42/146/5 4/208/84 45/147/85
f 46/149/87 3/209/86 47/15/14
f 80/85/58 26/202/57 83/97/66
f 46/151/87 1/210/6 42/152/5
f 47/15/14 3/209/86 45/154/85
f 43/156/4 1/211/6 44/157/2
f 10/159/90 53/212/8 8/160/29
f 71/162/11 19/61/38 67/60/42
f 73/42/32 31/213/54 84/164/53
f 58/33/27 17/18/17 69/165/50
f 90/114/75 35/201/94 89/130/80
f 64/44/34 16/163/12 67/60/42
f 9/168/25 54/214/18 10/159/90
f 45/169/85 4/142/84 48/1/1
f 87/121/56 29/67/47 83/170/66
f 44/157/2 1/211/6 46/172/87
